<?xml version="1.0" encoding="UTF-8" standalone="no"?>
<svg id="svg2" xmlns:rdf="http://www.w3.org/1999/02/22-rdf-syntax-ns#" xmlns="http://www.w3.org/2000/svg" xmlns:osb="http://www.openswatchbook.org/uri/2009/osb" xml:space="preserve" height="432.37" viewBox="0 0 432.36539 432.36899" width="432.37" version="1.1" xmlns:cc="http://creativecommons.org/ns#" xmlns:xlink="http://www.w3.org/1999/xlink" xmlns:dc="http://purl.org/dc/elements/1.1/"><metadata id="metadata61"><rdf:RDF><cc:Work rdf:about=""><dc:format>image/svg+xml</dc:format><dc:type rdf:resource="http://purl.org/dc/dcmitype/StillImage"/><dc:title/></cc:Work></rdf:RDF></metadata><defs id="defs6"><clipPath id="clipPath142" clipPathUnits="userSpaceOnUse"><path id="path144" clip-rule="evenodd" d="m4086.8 1917.4-2449.9-393.73-251.91 1567.4 2449.9 393.73 251.92-1567.4z"/></clipPath><radialGradient id="radialGradient146" gradientUnits="userSpaceOnUse" cy="0" cx="0" gradientTransform="matrix(1817.4,292.14,165.24,-1028,2735.9,2504.3)" r="1"><stop id="stop148" stop-color="#6acff0" offset="0"/><stop id="stop150" stop-color="#4769bb" offset="1"/></radialGradient><radialGradient id="radialGradient154" gradientUnits="userSpaceOnUse" cy="0" cx="0" gradientTransform="matrix(2766.4,444.67,124.57,-774.68,3258.5,2058.9)" r="1"><stop id="stop156" stop-color="#568fd3" offset="0"/><stop id="stop158" stop-color="#3f58b0" offset="1"/></radialGradient><radialGradient id="radialGradient162" gradientUnits="userSpaceOnUse" cy="0" cx="0" gradientTransform="matrix(3394.9,545.73,-46.523,-389.38,1146,1861.4)" r="1"><stop id="stop164" stop-color="#9dd8f5" offset="0"/><stop id="stop166" stop-color="#568fd3" offset="1"/></radialGradient><radialGradient id="radialGradient170" gradientUnits="userSpaceOnUse" cy="0" cx="0" gradientTransform="matrix(3130.9,503.27,111.12,-691.28,2480.6,2089.6)" r="1"><stop id="stop172" stop-color="#fcfab0" offset="0"/><stop id="stop174" stop-color="#fcfab0" offset=".26667"/><stop id="stop176" stop-color="#fbc76a" offset=".77895"/><stop id="stop178" stop-color="#fbc76a" offset="1"/></radialGradient><linearGradient id="linearGradient182" gradientUnits="userSpaceOnUse" gradientTransform="matrix(1341.8,-236.53,-236.53,-1341.8,2876.2,2817.9)"><stop id="stop184" stop-color="#564d1c" offset="0"/><stop id="stop186" stop-color="#ee9327" offset=".24912"/><stop id="stop188" stop-color="#f89a2e" offset=".54737"/><stop id="stop190" stop-color="#564d1c" offset="1"/></linearGradient><radialGradient id="radialGradient194" gradientUnits="userSpaceOnUse" cy="0" cx="0" gradientTransform="matrix(-206.45,239.68,-239.68,-206.45,2968,3118)" r="1"><stop id="stop196" stop-color="#1b4a24" offset="0"/><stop id="stop198" stop-color="#2c913d" offset=".69123"/><stop id="stop200" stop-color="#1f5629" offset="1"/></radialGradient><linearGradient id="linearGradient204" gradientUnits="userSpaceOnUse" gradientTransform="matrix(1684.7,270.8,270.8,-1684.7,2448.4,2422.1)"><stop id="stop206" stop-color="#564d1c" offset="0"/><stop id="stop208" stop-color="#ee9327" offset=".24912"/><stop id="stop210" stop-color="#f89a2e" offset=".54737"/><stop id="stop212" stop-color="#564d1c" offset="1"/></linearGradient><radialGradient id="radialGradient216" gradientUnits="userSpaceOnUse" cy="0" cx="0" gradientTransform="matrix(-65.21,520.6,520.6,65.21,2391.7,2775)" r="1"><stop id="stop218" stop-color="#1b4a24" offset="0"/><stop id="stop220" stop-color="#2c913d" offset=".69123"/><stop id="stop222" stop-color="#1f5629" offset="1"/></radialGradient><linearGradient id="linearGradient226" gradientUnits="userSpaceOnUse" gradientTransform="matrix(933.78,150.1,150.1,-933.78,3153.6,2199.4)"><stop id="stop228" stop-color="#fcfab0" offset="0"/><stop id="stop230" stop-color="#fcfab0" offset=".26667"/><stop id="stop232" stop-color="#fbc76a" offset=".77895"/><stop id="stop234" stop-color="#fbc76a" offset="1"/></linearGradient><linearGradient id="linearGradient4831" y2="306.22" gradientUnits="userSpaceOnUse" x2="273.59" y1="306.22" x1="116.79"><stop id="stop4829" stop-color="#fff" offset="0"/></linearGradient></defs><g id="g10" transform="matrix(1.25 0 0 -1.25 -130.4 490.87)"><g id="g12" transform="matrix(.17373 0 0 .16144 63.832 93.012)"><g id="g3576" transform="matrix(.57560 0 0 .61942 -321.99 -839.59)"><path id="path3724" fill="#3e539e" d="m4232.3 893.33c105.4 0 190.89 85.481 190.89 190.9v3077.1c0 105.45-85.49 190.91-190.89 190.91h-3077.1c-105.45 0-190.9-85.46-190.9-190.91v-3077.1c0-105.42 85.453-190.9 190.9-190.9h3077.1"/><path id="path3726" fill="#fff" d="m3350.9 893.33v1339.5h449.62l67.31 522.03h-516.93v333.28c0 151.14 41.96 254.14 258.7 254.14l276.44 0.13v466.89c-47.82 6.35-211.91 20.57-402.81 20.57-398.56 0-671.4-243.27-671.4-690.04v-384.97h-450.77v-522.03h450.77v-1339.5h539.07"/></g></g><g id="g138" transform="matrix(.056581 .0017446 -.0015166 .060712 34.031 -47.68)"><g id="g140" fill-rule="evenodd" clip-path="url(#clipPath142)"><path id="path152" fill="url(#radialGradient146)" d="m4086.8 1917.4-2449.9-393.73-251.91 1567.4 2449.9 393.73 251.92-1567.4"/><path id="path160" fill="url(#radialGradient154)" d="m4086.8 1917.4-2449.9-393.73-124.71 776.01 2449.9 393.73 124.71-776.01"/><path id="path168" fill="url(#radialGradient162)" d="m4008 2825.8s-1771.3-447.5-1886.8-507.95c-115.51-60.43 221.18-43.68 395.16-29.53 586.51 47.74 712.78-90.15-13.54-360.41s-1142-453.37-1142-453.37l2559.4 411.33 87.72 939.93"/><path id="path180" fill="url(#radialGradient170)" d="m3916.4 2830.1s-1589.2-421.58-1684.4-479.59c-95.12-58.03 225.55-44.62 389.77-32.32 553.57 41.48 713.09-94.31 85.05-351.92-628.05-257.61-979.72-432.83-979.72-432.83l2360.4 379.36-171.16 917.3"/><path id="path192" fill="url(#linearGradient182)" d="m2932.4 3094s778.61 83.21 1250.6-710.71l-111.65-94.34c-252.1 747.5-1150.9 780.5-1150.9 780.5l11.92 24.5"/><path id="path202" fill="url(#radialGradient194)" d="m2985.6 3132.2 163.53 152.99s105.54-27.65 242.19-193.41c0 0-95.44 64.75-219.48 70.29l-162.8-54.54 178.42-59.76s34.64-142.52 21.55-243.63c0 0-49.62 116.02-81.02 159.67l-147.61 120.73s-86.46-36.78-179.88-137.12c-17.56-68.44 43.07-175.61 43.07-175.61s-109.16 86.34-163.61 194.85c49.75 87.03 219.16 146.88 262.39 156.22l-131.22 86.75s-15.35-66.67-13.52-105.08c-61.45 63.03-43.92 149.57-43.92 149.57s66.55 57.05 133.63 63.77c0 0 60.18-93.04 98.28-185.69"/><path id="path214" fill="url(#linearGradient204)" d="m2401.7 2771.8s887.16 417.94 1771.4-327.8l-93.4-157.44c-605.06 781.11-1682 451.35-1682 451.35l4.04 33.89"/><path id="path224" fill="url(#radialGradient216)" d="m2354.7 2769-370.11-30.99s-83.39-160.58-31.48-513.08c0 0 26.52 189.43 157.69 348.19l248.2 139.61-124.98-285.97s136.79-201.17 275.72-297.53c0 0-87.52 190.08-106.29 277.28l15.71 315.88s141.4 65.46 368.77 68.76c103.73-54.55 168.11-248.36 168.11-248.36s15.2 230.34-57.7 418.05c-162.4 35.61-424.47-106.21-484.06-149.03l39.26 257.95s99.1-55.29 144.3-100.26c-9.17 145.71-135.12 220.43-135.12 220.43s-144.23-18.43-227.13-93.48c0 0 47.53-177.53 119.11-327.45"/><path id="path236" fill="url(#linearGradient226)" d="m3295.8 2288.6-32.95-27.56 402.08 7.7-471.99-77.56-33.47-28.07 883.95 112.9 45.39 64.84-793.01-52.25"/></g></g><path id="path3939" fill="url(#linearGradient4831)" d="m256.79 375.82-78.24-56.96c-5.6 2.72-12 4.16-18.56 4.16-23.84 0-43.2-19.36-43.2-43.2s19.36-43.2 43.2-43.2 43.2 19.36 43.2 43.2c0 1.28 0 2.4-0.16 3.68l10.56 7.52-4 7.2 8 5.6-1.6 9.6 6.4 4.8 12.8-5.6 4.8 4-1.6 10.4 6.4 4.8 6.4-3.2 4 2.4-0.8 7.2 4.8 4 9.6-4.8 4.8 3.2-3.2 27.2-72-52-3.2 5.6 72.8 52.8zm-96.8-59.2c20.32 0 36.8-16.48 36.8-36.8s-16.48-36.8-36.8-36.8-36.8 16.48-36.8 36.8 16.48 36.8 36.8 36.8zm-0.8-4.8c-18.08 0-32.8-14.72-32.8-32.8s14.72-32.8 32.8-32.8 32.8 14.72 32.8 32.8-14.72 32.8-32.8 32.8zm-8.8-25.6c7.04 0 12.8-5.76 12.8-12.8s-5.76-12.8-12.8-12.8-12.8 5.76-12.8 12.8 5.76 12.8 12.8 12.8z"/></g></svg>
